<svg version="1" xmlns="http://www.w3.org/2000/svg" width="318.667" height="318.667" viewBox="0 0 239.000000 239.000000"><path d="M60 24.5v4c0 1 17.9 1.4 18.6.4.3-.6.3-2.6 0-4.5-.7-3.2-.9-3.4-4.6-3.4-3.9 0-4 .1-4.1 3.7l-.1 3.8-1-3.8c-.9-3.5-1.2-3.7-4.9-3.7-3.8 0-3.9.1-3.9 3.5zM49.8 34.1c-.2 2.2-.2 4.2.1 4.5.9.9 8 .4 8.6-.7.4-.6.4-2.6.1-4.5-.6-3.2-.9-3.4-4.5-3.4-3.8 0-3.9.1-4.3 4.1zM40 43.5V48h9v-9h-9v4.5zM80 42.5v4c0 1 17.9 1.4 18.6.4.3-.6.3-2.6 0-4.5-.7-3.2-.9-3.4-4.6-3.4-3.9 0-4 .1-4.1 3.7l-.1 3.8-1-3.8c-.9-3.5-1.2-3.7-4.9-3.7-3.8 0-3.9.1-3.9 3.5zM30 57v9h9V48h-9v9zM69.8 52.1c-.2 2.2-.2 4.2.1 4.5.9.9 8 .4 8.6-.7.4-.6.4-2.6.1-4.5-.6-3.2-.9-3.4-4.5-3.4-3.8 0-3.9.1-4.3 4.1zM59.8 61.1c-.2 2.2-.2 4.2.1 4.5.9.9 8 .4 8.6-.7.4-.6.4-2.6.1-4.5-.6-3.2-.9-3.4-4.5-3.4-3.8 0-3.9.1-4.3 4.1zM100 60.5v4c0 1 17.9 1.4 18.6.4.3-.6.3-2.6 0-4.5-.7-3.2-.9-3.4-4.6-3.4-3.9 0-4 .1-4.1 3.7l-.1 3.8-1-3.8c-.9-3.5-1.2-3.7-4.9-3.7-3.8 0-3.9.1-3.9 3.5zM140 60.5v4c0 1 17.9 1.4 18.6.4.3-.6.3-2.6 0-4.5-.7-3.2-.9-3.4-4.6-3.4-3.9 0-4 .1-4.1 3.7l-.1 3.8-1-3.8c-.9-3.5-1.2-3.7-4.9-3.7-3.8 0-3.9.1-3.9 3.5zM49.9 69.5c0 1.9-.1 5.9-.1 8.7l-.1 5.3h8.8l.1-6C58.9 67 58.4 66 53.9 66c-3.8 0-3.9.1-4 3.5zM89.8 70.1c-.2 2.2-.2 4.2.1 4.5.9.9 8 .4 8.6-.7.4-.6.4-2.6.1-4.5-.6-3.2-.9-3.4-4.5-3.4-3.8 0-3.9.1-4.3 4.1zM159.8 70.1c-.2 2.2-.2 4.2.1 4.5.9.9 8 .4 8.6-.7.4-.6.4-2.6.1-4.5-.6-3.2-.9-3.4-4.5-3.4-3.8 0-3.9.1-4.3 4.1zM79.8 79.1c-.2 2.2-.2 4.2.1 4.5.9.9 8 .4 8.6-.7.4-.6.4-2.6.1-4.5-.6-3.2-.9-3.4-4.5-3.4-3.8 0-3.9.1-4.3 4.1zM169.8 79.1c-.2 2.2-.2 4.2.1 4.5.9.9 8 .4 8.6-.7.4-.6.4-2.6.1-4.5-.6-3.2-.9-3.4-4.5-3.4-3.8 0-3.9.1-4.3 4.1zM69.9 87.5c0 1.9 0 9.9-.1 17.7v14.3h8.7l.1-15c.2-20.4.2-20.5-4.7-20.5-3.8 0-3.9.1-4 3.5zM179.9 87.5c0 1.9 0 9.9-.1 17.7v14.3h8.7l.1-15c.2-20.4.2-20.5-4.7-20.5-3.8 0-3.9.1-4 3.5zM140 96.5v4c0 1 17.9 1.4 18.6.4.3-.6.3-2.6 0-4.5-.7-3.2-.9-3.4-4.6-3.4-3.9 0-4 .1-4.1 3.7l-.1 3.8-1-3.8c-.9-3.5-1.2-3.7-4.9-3.7-3.8 0-3.9.1-3.9 3.5zM129.9 105.5c0 1.9-.1 5.9-.1 8.7l-.1 5.3h8.8l.1-6c.3-10.5-.2-11.5-4.7-11.5-3.8 0-3.9.1-4 3.5zM159.9 105.5c0 1.9-.1 5.9-.1 8.7l-.1 5.3h8.8l.1-6c.3-10.5-.2-11.5-4.7-11.5-3.8 0-3.9.1-4 3.5zM59.8 124.1c-.2 2.2-.2 4.2.1 4.5.9.9 8 .4 8.6-.7.4-.6.4-2.6.1-4.5-.6-3.2-.9-3.4-4.5-3.4-3.8 0-3.9.1-4.3 4.1zM79.8 124.1c-.2 2.2-.2 4.2.1 4.5.9.9 8 .4 8.6-.7.4-.6.4-2.6.1-4.5-.6-3.2-.9-3.4-4.5-3.4-3.8 0-3.9.1-4.3 4.1zM140 123.5v4c0 1 17.9 1.4 18.6.4.3-.6.3-2.6 0-4.5-.7-3.2-.9-3.4-4.6-3.4-3.9 0-4 .1-4.1 3.7l-.1 3.8-1-3.8c-.9-3.5-1.2-3.7-4.9-3.7-3.8 0-3.9.1-3.9 3.5zM169.8 124.1c-.2 2.2-.2 4.2.1 4.5.9.9 8 .4 8.6-.7.4-.6.4-2.6.1-4.5-.6-3.2-.9-3.4-4.5-3.4-3.8 0-3.9.1-4.3 4.1zM189.8 124.1c-.2 2.2-.2 4.2.1 4.5.9.9 8 .4 8.6-.7.4-.6.4-2.6.1-4.5-.6-3.2-.9-3.4-4.5-3.4-3.8 0-3.9.1-4.3 4.1zM49.9 132.5c0 1.9-.1 5.9-.1 8.7l-.1 5.3h8.8l.1-6c.3-10.5-.2-11.5-4.7-11.5-3.8 0-3.9.1-4 3.5zM89.8 133.1c-.2 2.2-.2 4.2.1 4.5.9.9 8 .4 8.6-.7.4-.6.4-2.6.1-4.5-.6-3.2-.9-3.4-4.5-3.4-3.8 0-3.9.1-4.3 4.1zM159.8 133.1c-.2 2.2-.2 4.2.1 4.5.9.9 8 .4 8.6-.7.4-.6.4-2.6.1-4.5-.6-3.2-.9-3.4-4.5-3.4-3.8 0-3.9.1-4.3 4.1zM199.9 132.5c0 1.9-.1 5.9-.1 8.7l-.1 5.3h8.8l.1-6c.3-10.5-.2-11.5-4.7-11.5-3.8 0-3.9.1-4 3.5zM100 141.5v4c0 1 17.9 1.4 18.6.4.3-.6.3-2.6 0-4.5-.7-3.2-.9-3.4-4.6-3.4-3.9 0-4 .1-4.1 3.7l-.1 3.8-1-3.8c-.9-3.5-1.2-3.7-4.9-3.7-3.8 0-3.9.1-3.9 3.5zM140 141.5v4c0 1 17.9 1.4 18.6.4.3-.6.3-2.6 0-4.5-.7-3.2-.9-3.4-4.6-3.4-3.9 0-4 .1-4.1 3.7l-.1 3.8-1-3.8c-.9-3.5-1.2-3.7-4.9-3.7-3.8 0-3.9.1-3.9 3.5zM30 192v18h9v-36h-9v18zM49.9 177.5c0 1.9 0 7.9-.1 13.2v9.8h8.7l.1-10.5c.2-15.4.1-16-4.7-16-3.8 0-3.9.1-4 3.5zM69.9 177.5c0 1.9 0 7.9-.1 13.2v9.8h8.7l.1-10.5c.2-15.4.1-16-4.7-16-3.8 0-3.9.1-4 3.5zM89.9 177.5c0 1.9-.1 5.9-.1 8.7l-.1 5.3h8.8l-.2-4.6-.3-4.6 4.9.5c5.6.5 6.6-.4 5.7-5.4-.7-3.2-.9-3.4-4.6-3.4-3.9 0-4 .1-4.1 3.7l-.1 3.8-1-3.8c-.9-3.5-1.2-3.7-4.9-3.7-3.8 0-3.9.1-4 3.5zM119.8 178.1c-.4 4.8.4 5.4 6.2 4.6l3.9-.5-.1 13.6-.1 13.7h8.8l-.1-13.6-.1-13.6 4.7.5c5.5.5 6.5-.4 5.6-5.4-.7-3.2-.9-3.4-4.6-3.4-3.9 0-4 .1-4.1 3.7l-.1 3.8-1-3.8c-.9-3.5-1.2-3.7-4.9-3.7-3.8 0-3.9.1-4 3.7l-.1 3.8-1-3.8c-.9-3.4-1.3-3.7-4.8-3.7-3.7 0-3.8.1-4.2 4.1zM179.9 177.7c0 2.1-.1 9.9-.1 17.3 0 10.8-.2 12.7-1 9.7-.9-3.5-1.2-3.7-4.8-3.7-3.7 0-3.8.1-4.2 4.1-.2 2.3.1 4.3.7 4.5.5.2 4.8.2 9.5.1l8.5-.2.1-15c.2-20.4.2-20.5-4.7-20.5-3.8 0-3.9.1-4 3.7zM199.9 177.5c0 1.9-.1 5.9-.1 8.7l-.1 5.3h8.8l-.2-4.5-.2-4.5 4.9.3 5 .4V174h-4.4c-3.4 0-4.6.4-4.9 1.7-.4 1.7-.5 1.7-.6 0-.1-1.3-1-1.7-4.1-1.7-3.9 0-4 .1-4.1 3.5zM99.9 195.7c0 2.1-.1 5.8 0 8.3v4.5l-1.1-3.8c-.9-3.4-1.3-3.7-4.8-3.7-3.7 0-3.8.1-4.2 4.1-.2 2.3.1 4.3.7 4.5.5.2 4.8.2 9.5.1l8.5-.2.1-6c.3-10.5-.2-11.5-4.7-11.5-3.8 0-3.9.1-4 3.7zM208.9 198.2c-.1 3.5-.3 5.5-.6 4.5-.3-1.2-1.5-1.7-4.3-1.7-3.7 0-3.8.1-4.2 4.1-.2 2.2-.1 4.2.2 4.4.3.2 4.5.4 9.3.4h8.7V192h-9l-.1 6.2zM20 205.5v4.5h9v-9h-9v4.5zM59.8 205.1c-.2 2.2-.2 4.2.1 4.5.9.9 8 .4 8.6-.7.4-.6.4-2.6.1-4.5-.6-3.2-.9-3.4-4.5-3.4-3.8 0-3.9.1-4.3 4.1zM149.8 205.1c-.2 2.2-.2 4.2.1 4.5.9.9 8 .4 8.6-.7.4-.6.4-2.6.1-4.5-.6-3.2-.9-3.4-4.5-3.4-3.8 0-3.9.1-4.3 4.1z"/></svg>